<?xml version="1.0" encoding="utf-8"?>
<!-- Generator: Adobe Illustrator 27.5.0, SVG Export Plug-In . SVG Version: 6.00 Build 0)  -->
<svg version="1.1" id="background" xmlns="http://www.w3.org/2000/svg" xmlns:xlink="http://www.w3.org/1999/xlink" x="0px" y="0px"
	 viewBox="0 0 600 400" style="enable-background:new 0 0 600 400;" xml:space="preserve">
<g>
	<rect y="0" style="fill:#FFFFFF;" width="600" height="400"/>
	<g>
		<linearGradient id="SVGID_1_" gradientUnits="userSpaceOnUse" x1="300" y1="3.2495" x2="300" y2="394.2094">
			<stop  offset="0" style="stop-color:#E0D8BF"/>
			<stop  offset="1" style="stop-color:#E0C998"/>
		</linearGradient>
		<path style="fill:url(#SVGID_1_);" d="M588.96,0.5H600V0h-11.91l-5.1,8.84l-5.11,8.84h-20.41L547.26,0h-22.15l-7.46,12.92
			l-2.75,4.76h-20.42L484.28,0h-22.15l-10.21,17.68H431.5L421.29,0h-22.15l-10.2,17.68h-20.42L358.31,0h-22.15l-7.46,12.92
			l-2.75,4.76h-20.41L295.33,0h-22.15l-10.21,17.68h-20.41L232.35,0H210.2l-5.11,8.84l-5.1,8.84h-20.42L169.37,0h-22.15l-2.76,4.76
			l-7.45,12.92h-20.42L106.38,0H84.23L74.02,17.68H53.61L43.4,0H21.25l-5.1,8.84l-5.11,8.84H0v1h11.04l5.11,8.84l5.1,8.84l-5.1,8.84
			l-5.11,8.85H0v1h11.04l5.11,8.84l5.1,8.84l-5.1,8.84l-5.11,8.84H0v1h11.04l5.11,8.84l5.1,8.84l-5.1,8.84l-5.11,8.84H0v1h11.04
			l5.11,8.84l5.1,8.84l-5.1,8.85l-5.11,8.84H0v1h11.04l5.11,8.84l5.1,8.84l-5.1,8.84l-5.11,8.84H0v1h11.04l5.11,8.84l5.1,8.84
			l-5.1,8.84l-5.11,8.84H0v1h11.04l5.11,8.84l5.1,8.85l-5.1,8.84l-5.11,8.84H0v1h11.04l5.11,8.84l5.1,8.84l-5.1,8.84l-5.11,8.84H0v1
			h11.04l5.11,8.84l5.1,8.84l-5.1,8.84l-5.11,8.84H0v1h11.04l5.11,8.85l5.1,8.84l-5.1,8.84l-5.11,8.84H0v1h11.04l5.11,8.84l5.1,8.84
			H43.4l10.21-17.68h20.41l6.81,11.79l3.4,5.89h22.15l10.21-17.68h20.42l7.45,12.92l2.76,4.76h22.15l10.2-17.68h20.42l5.1,8.84
			l5.11,8.84h22.15l10.21-17.68h20.41l6.81,11.79l3.4,5.89h22.15l10.21-17.68h20.41l2.75,4.76l7.46,12.92h22.15l10.21-17.68h20.42
			l10.2,17.68h22.15l10.21-17.68h20.42l6.8,11.79l3.41,5.89h22.15l10.2-17.68h20.42l2.75,4.76l7.46,12.92h22.15l10.21-17.68h20.41
			l5.11,8.84l5.1,8.84H600v-0.5h-11.04l-5.11-8.84l-5.1-8.84l5.1-8.84l5.11-8.84H600v-1h-11.04l-5.11-8.84l-5.1-8.85l5.1-8.84
			l5.11-8.84H600v-1h-11.04l-5.11-8.84l-5.1-8.84l5.1-8.84l5.11-8.84H600v-1h-11.04l-5.11-8.84l-5.1-8.84l5.1-8.84l5.11-8.84H600v-1
			h-11.04l-5.11-8.85l-5.1-8.84l5.1-8.84l5.11-8.84H600v-1h-11.04l-5.11-8.84l-5.1-8.84l5.1-8.84l5.11-8.84H600v-1h-11.04
			l-5.11-8.84l-5.1-8.84l5.1-8.84l5.11-8.85H600v-1h-11.04l-5.11-8.84l-5.1-8.84l5.1-8.84l5.11-8.84H600v-1h-11.04l-5.11-8.84
			l-5.1-8.84l5.1-8.84l5.11-8.84H600v-1h-11.04l-5.11-8.84l-5.1-8.84l5.1-8.85l5.11-8.84H600v-1h-11.04l-5.11-8.84l-5.1-8.84
			l5.1-8.84L588.96,0.5z M525.98,0.5h20.41l10.21,17.68l-10.21,17.68h-20.41l-10.21-17.68L525.98,0.5z M400.01,181.32l-10.21-17.68
			l10.21-17.69h20.42l10.21,17.69l-10.21,17.68H400.01z M430.64,200l-10.21,17.68h-20.42L389.8,200l10.21-17.68h20.42L430.64,200z
			 M399.14,181.82l-10.2,17.68h-20.42l-10.21-17.68l10.21-17.68h20.42L399.14,181.82z M367.65,200l-10.21,17.68h-20.41l-6.81-11.79
			l-3.4-5.89l10.21-17.68h20.41L367.65,200z M357.44,181.32h-20.41l-10.21-17.68l10.21-17.69h20.41l10.21,17.69L357.44,181.32z
			 M328.69,168.87l7.47,12.95l-7.46,12.92l-2.75,4.76h-20.41l-10.21-17.68l10.21-17.68h20.41L328.69,168.87z M304.67,200
			l-10.21,17.68h-20.41l-2.75-4.76L263.84,200l7.46-12.92l2.75-4.76h20.41L304.67,200z M294.46,181.32h-20.41l-2.74-4.74
			l-7.47-12.94l7.46-12.92l2.75-4.77h20.41l10.21,17.69L294.46,181.32z M273.18,181.82l-10.21,17.68h-20.41l-10.21-17.68
			l10.21-17.68h20.41L273.18,181.82z M241.69,200l-10.21,17.68h-20.42l-5.1-8.84l-5.1-8.84l5.1-8.84l5.1-8.84h20.42L241.69,200z
			 M231.48,181.32h-20.42l-5.1-8.84l-5.1-8.84l5.1-8.84l5.1-8.85h20.42l10.21,17.69L231.48,181.32z M205.09,172.98l5.11,8.84
			l-5.11,8.84l-5.1,8.84h-20.42l-10.2-17.68l10.2-17.68h20.42L205.09,172.98z M168.5,181.32h-20.42l-10.21-17.68l10.21-17.69h20.42
			l10.21,17.69L168.5,181.32z M168.5,182.32L178.71,200l-10.21,17.68h-20.42L137.87,200l10.21-17.68H168.5z M168.5,218.68
			l10.21,17.68l-10.21,17.69h-20.42l-10.21-17.69l10.21-17.68H168.5z M169.37,218.18l10.2-17.68h20.42l5.1,8.84l5.11,8.84
			l-5.11,8.84l-5.1,8.84h-20.42L169.37,218.18z M205.96,227.52l5.1-8.84h20.42l10.21,17.68l-10.21,17.69h-20.42l-5.1-8.85l-5.1-8.84
			L205.96,227.52z M232.35,218.18l10.21-17.68h20.41l6.81,11.79l3.4,5.89l-10.21,17.68h-20.41L232.35,218.18z M271.3,223.45
			l2.75-4.77h20.41l10.21,17.68l-10.21,17.69h-20.41l-2.72-4.71l-7.49-12.98L271.3,223.45z M295.33,218.18l10.21-17.68h20.41
			l2.75,4.76l7.46,12.92l-7.46,12.92l-2.75,4.76h-20.41L295.33,218.18z M337.03,218.68h20.41l10.21,17.68l-10.21,17.69h-20.41
			l-10.21-17.69L337.03,218.68z M358.31,218.18l10.21-17.68h20.42l10.2,17.68l-10.2,17.68h-20.42L358.31,218.18z M400.01,218.68
			h20.42l10.21,17.68l-10.21,17.69h-20.42l-10.21-17.69L400.01,218.68z M421.29,218.18l10.21-17.68h20.42l6.8,11.79l3.41,5.89
			l-10.21,17.68H431.5L421.29,218.18z M431.5,199.5l-10.21-17.68l10.21-17.68h20.42l10.21,17.68l-10.21,17.68H431.5z M431.5,163.14
			l-10.21-17.68l10.21-17.69h20.42l6.8,11.79l3.41,5.89l-10.21,17.69H431.5z M420.43,144.95h-20.42l-10.21-17.68l10.21-17.68h20.42
			l10.21,17.68L420.43,144.95z M399.14,145.45l-10.2,17.69h-20.42l-10.21-17.69l10.21-17.68h20.42L399.14,145.45z M357.44,144.95
			h-20.41l-6.81-11.78l-3.4-5.9l10.21-17.68h20.41l10.21,17.68L357.44,144.95z M328.7,132.54l7.46,12.91l-7.46,12.92l-2.75,4.77
			h-20.41l-10.21-17.69l10.21-17.68h20.41L328.7,132.54z M294.46,144.95h-20.41l-2.75-4.76l-7.46-12.92l7.47-12.94l2.74-4.74h20.41
			l10.21,17.68L294.46,144.95z M269.78,139.56l3.4,5.89l-10.21,17.69h-20.41l-10.21-17.68l10.21-17.69h20.41L269.78,139.56z
			 M231.48,144.95h-20.42l-5.1-8.84l-5.1-8.84l5.1-8.84l5.1-8.84h20.42l10.21,17.68L231.48,144.95z M205.09,136.61l5.11,8.84
			l-5.11,8.85l-5.1,8.84h-20.42l-10.2-17.69l10.2-17.68h20.42L205.09,136.61z M168.5,144.95h-20.42l-10.21-17.68l10.21-17.68h20.42
			l10.21,17.68L168.5,144.95z M144.46,140.69l2.76,4.76l-2.76,4.77l-7.45,12.92h-20.42l-10.21-17.69l10.21-17.68h20.42
			L144.46,140.69z M137.01,164.14l7.47,12.94l2.74,4.74l-2.76,4.76l-7.45,12.92h-20.42l-10.21-17.68l10.21-17.68H137.01z
			 M137.01,200.5l7.45,12.92l2.76,4.76l-2.76,4.77l-7.45,12.91h-20.42l-10.21-17.68l10.21-17.68H137.01z M137.01,236.86l7.49,12.98
			l2.72,4.71l-2.76,4.76l-7.45,12.92h-20.42l-10.21-17.68l10.21-17.69H137.01z M148.08,255.05h20.42l10.21,17.68l-10.21,17.68
			h-20.42l-10.21-17.68L148.08,255.05z M169.37,254.55l10.2-17.69h20.42l5.1,8.84l5.11,8.85l-5.11,8.84l-5.1,8.84h-20.42
			L169.37,254.55z M205.96,263.89l5.1-8.84h20.42l10.21,17.68l-10.21,17.68h-20.42l-5.1-8.84l-5.1-8.84L205.96,263.89z
			 M232.35,254.55l10.21-17.69h20.41l10.21,17.69l-10.21,17.68h-20.41L232.35,254.55z M271.3,259.81l2.75-4.76h20.41l10.21,17.68
			l-10.21,17.68h-20.41l-2.75-4.76l-7.46-12.92L271.3,259.81z M295.33,254.55l10.21-17.69h20.41l2.72,4.71l7.49,12.98l-7.46,12.91
			l-2.75,4.77h-20.41L295.33,254.55z M337.03,255.05h20.41l10.21,17.68l-10.21,17.68h-20.41l-6.81-11.79l-3.4-5.89L337.03,255.05z
			 M358.31,254.55l10.21-17.69h20.42l10.2,17.69l-10.2,17.68h-20.42L358.31,254.55z M400.01,255.05h20.42l10.21,17.68l-10.21,17.68
			h-20.42l-10.21-17.68L400.01,255.05z M421.29,254.55l10.21-17.69h20.42l10.21,17.69l-10.21,17.68H431.5L421.29,254.55z
			 M460.24,259.81l2.75-4.76h20.42l10.21,17.68l-10.21,17.68h-20.42l-2.75-4.76l-7.45-12.92L460.24,259.81z M462.99,254.05
			l-2.71-4.71l-7.49-12.98l7.45-12.91l2.75-4.77h20.42l10.21,17.68l-10.21,17.69H462.99z M462.99,217.68l-2.75-4.76L452.79,200
			l7.45-12.92l2.75-4.76h20.42L493.62,200l-10.21,17.68H462.99z M462.99,181.32l-2.73-4.74l-7.47-12.94l7.45-12.92l2.75-4.77h20.42
			l10.21,17.69l-10.21,17.68H462.99z M462.99,144.95l-2.75-4.76l-7.45-12.92l7.47-12.94l2.73-4.74h20.42l10.21,17.68l-10.21,17.68
			H462.99z M462.99,108.59l-2.75-4.76l-7.45-12.92l7.47-12.95l2.73-4.73h20.42l10.21,17.68l-10.21,17.68H462.99z M458.72,103.2
			l3.41,5.89l-10.21,17.68H431.5l-10.21-17.68l10.21-17.68h20.42L458.72,103.2z M420.43,108.59h-20.42L389.8,90.91l10.21-17.68
			h20.42l10.21,17.68L420.43,108.59z M399.14,109.09l-10.2,17.68h-20.42l-10.21-17.68l10.21-17.68h20.42L399.14,109.09z
			 M357.44,108.59h-20.41l-6.81-11.79l-3.4-5.89l10.21-17.68h20.41l10.21,17.68L357.44,108.59z M328.7,96.17l7.46,12.92l-7.47,12.95
			l-2.74,4.73h-20.41l-10.21-17.68l10.21-17.68h20.41L328.7,96.17z M294.46,108.59h-20.41l-2.75-4.76l-7.46-12.92l7.47-12.95
			l2.74-4.73h20.41l10.21,17.68L294.46,108.59z M269.78,103.2l3.4,5.89l-10.21,17.68h-20.41l-10.21-17.68l10.21-17.68h20.41
			L269.78,103.2z M231.48,108.59h-20.42l-5.1-8.84l-5.1-8.84l5.1-8.84l5.1-8.84h20.42l10.21,17.68L231.48,108.59z M205.09,100.25
			l5.11,8.84l-5.11,8.84l-5.1,8.84h-20.42l-10.2-17.68l10.2-17.68h20.42L205.09,100.25z M168.5,108.59h-20.42l-10.21-17.68
			l10.21-17.68h20.42l10.21,17.68L168.5,108.59z M144.46,104.33l2.76,4.76l-2.74,4.74l-7.47,12.94h-20.42l-10.21-17.68l10.21-17.68
			h20.42L144.46,104.33z M105.52,108.59H85.1l-2.75-4.76l-7.46-12.92l7.48-12.95l2.73-4.73h20.42l10.2,17.68L105.52,108.59z
			 M105.52,109.59l10.2,17.68l-10.2,17.68H85.1l-2.75-4.76l-7.46-12.92l7.48-12.94l2.73-4.74H105.52z M105.52,145.95l10.2,17.69
			l-10.2,17.68H85.1l-2.73-4.74l-7.48-12.94l7.46-12.92l2.75-4.77H105.52z M105.52,182.32l10.2,17.68l-10.2,17.68H85.1l-2.75-4.76
			L74.89,200l7.46-12.92l2.75-4.76H105.52z M105.52,218.68l10.2,17.68l-10.2,17.69H85.1l-2.72-4.71l-7.49-12.98l7.46-12.91
			l2.75-4.77H105.52z M105.52,255.05l10.2,17.68l-10.2,17.68H85.1l-2.75-4.76l-7.46-12.92l7.46-12.92l2.75-4.76H105.52z
			 M105.52,291.41l10.2,17.68l-10.2,17.68H85.1l-2.75-4.76l-7.46-12.92l7.46-12.92l2.75-4.76H105.52z M106.38,290.91l10.21-17.68
			h20.42l7.45,12.92l2.76,4.76l-2.76,4.76l-7.45,12.92h-20.42L106.38,290.91z M148.08,291.41h20.42l10.21,17.68l-10.21,17.68h-20.42
			l-10.21-17.68L148.08,291.41z M169.37,290.91l10.2-17.68h20.42l5.1,8.84l5.11,8.84l-5.11,8.84l-5.1,8.84h-20.42L169.37,290.91z
			 M205.96,300.25l5.1-8.84h20.42l10.21,17.68l-10.21,17.68h-20.42l-5.1-8.84l-5.1-8.84L205.96,300.25z M232.35,290.91l10.21-17.68
			h20.41l6.81,11.79l3.4,5.89l-10.21,17.68h-20.41L232.35,290.91z M271.3,296.17l2.75-4.76h20.41l10.21,17.68l-10.21,17.68h-20.41
			l-2.75-4.76l-7.46-12.92L271.3,296.17z M295.33,290.91l10.21-17.68h20.41l2.75,4.76l7.46,12.92l-7.46,12.92l-2.75,4.76h-20.41
			L295.33,290.91z M337.03,291.41h20.41l10.21,17.68l-10.21,17.68h-20.41l-6.81-11.79l-3.4-5.89L337.03,291.41z M358.31,290.91
			l10.21-17.68h20.42l10.2,17.68l-10.2,17.68h-20.42L358.31,290.91z M400.01,291.41h20.42l10.21,17.68l-10.21,17.68h-20.42
			l-10.21-17.68L400.01,291.41z M421.29,290.91l10.21-17.68h20.42l6.8,11.79l3.41,5.89l-10.21,17.68H431.5L421.29,290.91z
			 M460.24,296.17l2.75-4.76h20.42l10.21,17.68l-10.21,17.68h-20.42l-2.75-4.76l-7.45-12.92L460.24,296.17z M484.28,290.91
			l10.2-17.68h20.42l2.75,4.76l7.46,12.92l-7.46,12.92l-2.75,4.76h-20.42L484.28,290.91z M494.48,272.23l-10.2-17.68l10.2-17.69
			h20.42l2.72,4.71l7.49,12.98l-7.46,12.91l-2.75,4.77H494.48z M494.48,235.86l-10.2-17.68l10.2-17.68h20.42l2.75,4.76l7.46,12.92
			l-7.46,12.92l-2.75,4.76H494.48z M494.48,199.5l-10.2-17.68l10.2-17.68h20.42l2.73,4.73l7.48,12.95l-7.46,12.92l-2.75,4.76H494.48
			z M494.48,163.14l-10.2-17.69l10.2-17.68h20.42l2.75,4.77l7.46,12.91l-7.46,12.92l-2.75,4.77H494.48z M494.48,126.77l-10.2-17.68
			l10.2-17.68h20.42l2.75,4.76l7.46,12.92l-7.48,12.95l-2.73,4.73H494.48z M494.48,90.41l-10.2-17.68l10.2-17.68h20.42l2.75,4.76
			l7.46,12.92l-7.48,12.94l-2.73,4.74H494.48z M483.41,72.23h-20.42l-2.75-4.77l-7.45-12.91l7.45-12.92l2.75-4.77h20.42l10.21,17.69
			L483.41,72.23z M458.72,66.83l3.41,5.9l-10.21,17.68H431.5l-10.21-17.68l10.21-17.68h20.42L458.72,66.83z M420.43,72.23h-20.42
			L389.8,54.55l10.21-17.69h20.42l10.21,17.69L420.43,72.23z M399.14,72.73l-10.2,17.68h-20.42l-10.21-17.68l10.21-17.68h20.42
			L399.14,72.73z M357.44,72.23h-20.41l-6.81-11.79l-3.4-5.89l10.21-17.69h20.41l10.21,17.68L357.44,72.23z M328.7,59.81l7.46,12.92
			l-7.47,12.94l-2.74,4.74h-20.41l-10.21-17.68l10.21-17.68h20.41L328.7,59.81z M294.46,72.23h-20.41l-2.75-4.77l-7.46-12.91
			l7.46-12.92l2.75-4.77h20.41l10.21,17.69L294.46,72.23z M269.78,66.83l3.4,5.9l-10.21,17.68h-20.41l-10.21-17.68l10.21-17.68
			h20.41L269.78,66.83z M231.48,72.23h-20.42l-5.1-8.84l-5.1-8.84l5.1-8.85l5.1-8.84h20.42l10.21,17.69L231.48,72.23z M205.09,63.89
			l5.11,8.84l-5.11,8.84l-5.1,8.84h-20.42l-10.2-17.68l10.2-17.68h20.42L205.09,63.89z M168.5,72.23h-20.42l-10.21-17.68
			l10.21-17.69h20.42l10.21,17.69L168.5,72.23z M144.46,67.96l2.76,4.77l-2.74,4.73l-7.47,12.95h-20.42l-10.21-17.68l10.21-17.68
			h20.42L144.46,67.96z M105.52,72.23H85.1l-2.75-4.77l-7.46-12.91l7.46-12.92l2.75-4.77h20.42l10.2,17.69L105.52,72.23z
			 M80.83,66.83l3.4,5.9L74.02,90.41H53.61L43.4,72.73l10.21-17.68h20.41L80.83,66.83z M74.02,91.41l6.81,11.79l3.4,5.89
			l-10.21,17.68H53.61L43.4,109.09l10.21-17.68H74.02z M74.02,127.77l6.81,11.79l3.4,5.89l-10.21,17.69H53.61L43.4,145.45
			l10.21-17.68H74.02z M74.02,164.14l10.21,17.68L74.02,199.5H53.61L43.4,181.82l10.21-17.68H74.02z M74.02,200.5l6.81,11.79
			l3.4,5.89l-10.21,17.68H53.61L43.4,218.18l10.21-17.68H74.02z M74.02,236.86l10.21,17.69l-10.21,17.68H53.61L43.4,254.55
			l10.21-17.69H74.02z M74.02,273.23l6.81,11.79l3.4,5.89l-10.21,17.68H53.61L43.4,290.91l10.21-17.68H74.02z M74.02,309.59
			l6.81,11.79l3.4,5.89l-10.21,17.68H53.61L43.4,327.27l10.21-17.68H74.02z M82.35,332.54l2.75-4.77h20.42l10.2,17.68l-10.2,17.69
			H85.1l-2.72-4.71l-7.49-12.98L82.35,332.54z M106.38,327.27l10.21-17.68h20.42l7.45,12.92l2.76,4.76l-2.76,4.77l-7.45,12.91
			h-20.42L106.38,327.27z M148.08,327.77h20.42l10.21,17.68l-10.21,17.69h-20.42l-10.21-17.69L148.08,327.77z M169.37,327.27
			l10.2-17.68h20.42l5.1,8.84l5.11,8.84l-5.11,8.84l-5.1,8.84h-20.42L169.37,327.27z M205.96,336.61l5.1-8.84h20.42l10.21,17.68
			l-10.21,17.69h-20.42l-5.1-8.84l-5.1-8.85L205.96,336.61z M232.35,327.27l10.21-17.68h20.41l6.81,11.79l3.4,5.89l-10.21,17.68
			h-20.41L232.35,327.27z M271.3,332.54l2.75-4.77h20.41l10.21,17.68l-10.21,17.69h-20.41l-2.72-4.71l-7.49-12.98L271.3,332.54z
			 M295.33,327.27l10.21-17.68h20.41l2.75,4.76l7.46,12.92l-7.46,12.92l-2.75,4.76h-20.41L295.33,327.27z M337.03,327.77h20.41
			l10.21,17.68l-10.21,17.69h-20.41l-10.21-17.69L337.03,327.77z M358.31,327.27l10.21-17.68h20.42l10.2,17.68l-10.2,17.68h-20.42
			L358.31,327.27z M400.01,327.77h20.42l10.21,17.68l-10.21,17.69h-20.42l-10.21-17.69L400.01,327.77z M421.29,327.27l10.21-17.68
			h20.42l6.8,11.79l3.41,5.89l-10.21,17.68H431.5L421.29,327.27z M460.24,332.54l2.75-4.77h20.42l10.21,17.68l-10.21,17.69h-20.42
			l-2.71-4.71l-7.49-12.98L460.24,332.54z M484.28,327.27l10.2-17.68h20.42l2.75,4.76l7.46,12.92l-7.46,12.92l-2.75,4.76h-20.42
			L484.28,327.27z M525.98,327.77h20.41l10.21,17.68l-10.21,17.69h-20.41l-10.21-17.69L525.98,327.77z M525.98,326.77l-6.81-11.79
			l-3.4-5.89l10.21-17.68h20.41l10.21,17.68l-10.21,17.68H525.98z M525.98,290.41l-6.81-11.79l-3.4-5.89l10.21-17.68h20.41
			l10.21,17.68l-10.21,17.68H525.98z M525.98,254.05l-10.21-17.69l10.21-17.68h20.41l10.21,17.68l-10.21,17.69H525.98z
			 M525.98,217.68l-6.81-11.79l-3.4-5.89l10.21-17.68h20.41L556.6,200l-10.21,17.68H525.98z M525.98,181.32l-10.21-17.68
			l10.21-17.69h20.41l10.21,17.69l-10.21,17.68H525.98z M525.98,144.95l-6.81-11.78l-3.4-5.9l10.21-17.68h20.41l10.21,17.68
			l-10.21,17.68H525.98z M525.98,108.59l-6.81-11.79l-3.4-5.89l10.21-17.68h20.41l10.21,17.68l-10.21,17.68H525.98z M525.98,72.23
			l-6.81-11.79l-3.4-5.89l10.21-17.69h20.41l10.21,17.69l-10.21,17.68H525.98z M514.9,18.68l2.73,4.74l7.48,12.94l-7.46,12.92
			l-2.75,4.77h-20.42l-10.2-17.69l10.2-17.68H514.9z M460.24,5.26l2.75-4.76h20.42l10.21,17.68l-10.21,17.68h-20.42l-2.73-4.73
			l-7.47-12.95L460.24,5.26z M451.92,18.68l10.21,17.68l-10.21,17.69H431.5l-10.21-17.69l10.21-17.68H451.92z M400.01,0.5h20.42
			l10.21,17.68l-10.21,17.68h-20.42L389.8,18.18L400.01,0.5z M388.94,18.68l10.2,17.68l-10.2,17.69h-20.42l-10.21-17.69l10.21-17.68
			H388.94z M337.03,0.5h20.41l10.21,17.68l-10.21,17.68h-20.41l-10.21-17.68L337.03,0.5z M325.95,18.68l2.74,4.74l7.47,12.94
			l-7.46,12.92l-2.75,4.77h-20.41l-10.21-17.69l10.21-17.68H325.95z M271.3,5.26l2.75-4.76h20.41l10.21,17.68l-10.21,17.68h-20.41
			l-2.74-4.73l-7.47-12.95L271.3,5.26z M262.97,18.68l10.21,17.68l-10.21,17.69h-20.41l-10.21-17.69l10.21-17.68H262.97z
			 M205.96,9.34l5.1-8.84h20.42l10.21,17.68l-10.21,17.68h-20.42l-5.1-8.84l-5.1-8.84L205.96,9.34z M199.99,18.68l5.1,8.84
			l5.11,8.84l-5.11,8.84l-5.1,8.85h-20.42l-10.2-17.69l10.2-17.68H199.99z M148.08,0.5h20.42l10.21,17.68L168.5,35.86h-20.42
			l-10.21-17.68L148.08,0.5z M137.01,18.68l7.47,12.95l2.74,4.73l-2.76,4.77l-7.45,12.92h-20.42l-10.21-17.69l10.21-17.68H137.01z
			 M82.35,5.26L85.1,0.5h20.42l10.2,17.68l-10.2,17.68H85.1l-2.73-4.73l-7.48-12.95L82.35,5.26z M74.02,18.68l10.21,17.68
			L74.02,54.05H53.61L43.4,36.36l10.21-17.68H74.02z M17.01,27.02l-5.1-8.84l5.1-8.84l5.11-8.84h20.41l10.21,17.68L42.53,35.86
			H22.12L17.01,27.02z M17.01,63.39l-5.1-8.84l5.1-8.85l5.11-8.84h20.41l10.21,17.69L42.53,72.23H22.12L17.01,63.39z M17.01,99.75
			l-5.1-8.84l5.1-8.84l5.11-8.84h20.41l10.21,17.68l-10.21,17.68H22.12L17.01,99.75z M17.01,136.11l-5.1-8.84l5.1-8.84l5.11-8.84
			h20.41l10.21,17.68l-10.21,17.68H22.12L17.01,136.11z M17.01,172.48l-5.1-8.84l5.1-8.84l5.11-8.85h20.41l10.21,17.69l-10.21,17.68
			H22.12L17.01,172.48z M17.01,208.84l-5.1-8.84l5.1-8.84l5.11-8.84h20.41L52.74,200l-10.21,17.68H22.12L17.01,208.84z M17.01,245.2
			l-5.1-8.84l5.1-8.84l5.11-8.84h20.41l10.21,17.68l-10.21,17.69H22.12L17.01,245.2z M17.01,281.57l-5.1-8.84l5.1-8.84l5.11-8.84
			h20.41l10.21,17.68l-10.21,17.68H22.12L17.01,281.57z M17.01,317.93l-5.1-8.84l5.1-8.84l5.11-8.84h20.41l10.21,17.68l-10.21,17.68
			H22.12L17.01,317.93z M17.01,354.3l-5.1-8.85l5.1-8.84l5.11-8.84h20.41l10.21,17.68l-10.21,17.69H22.12L17.01,354.3z M42.53,399.5
			H22.12l-5.11-8.84l-5.1-8.84l5.1-8.84l5.11-8.84h20.41l10.21,17.68L42.53,399.5z M53.61,381.32L43.4,363.64l10.21-17.69h20.41
			l10.21,17.69l-10.21,17.68H53.61z M105.52,399.5H85.1l-2.75-4.76l-7.46-12.92l7.46-12.92l2.75-4.76h20.42l10.2,17.68L105.52,399.5
			z M116.59,381.32l-10.21-17.68l10.21-17.69h20.42l7.49,12.98l2.72,4.71l-2.76,4.76l-7.45,12.92H116.59z M168.5,399.5h-20.42
			l-10.21-17.68l10.21-17.68h20.42l10.21,17.68L168.5,399.5z M179.57,381.32l-10.2-17.68l10.2-17.69h20.42l5.1,8.85l5.11,8.84
			l-5.11,8.84l-5.1,8.84H179.57z M231.48,399.5h-20.42l-5.1-8.84l-5.1-8.84l5.1-8.84l5.1-8.84h20.42l10.21,17.68L231.48,399.5z
			 M242.56,381.32l-10.21-17.68l10.21-17.69h20.41l10.21,17.69l-10.21,17.68H242.56z M294.46,399.5h-20.41l-2.75-4.76l-7.46-12.92
			l7.46-12.92l2.75-4.76h20.41l10.21,17.68L294.46,399.5z M305.54,381.32l-10.21-17.68l10.21-17.69h20.41l2.72,4.71l7.49,12.98
			l-7.46,12.91l-2.75,4.77H305.54z M357.44,399.5h-20.41l-6.81-11.79l-3.4-5.89l10.21-17.68h20.41l10.21,17.68L357.44,399.5z
			 M368.52,381.32l-10.21-17.68l10.21-17.69h20.42l10.2,17.69l-10.2,17.68H368.52z M420.43,399.5h-20.42l-10.21-17.68l10.21-17.68
			h20.42l10.21,17.68L420.43,399.5z M431.5,381.32l-10.21-17.68l10.21-17.69h20.42l10.21,17.69l-10.21,17.68H431.5z M483.41,399.5
			h-20.42l-2.75-4.76l-7.45-12.92l7.45-12.92l2.75-4.76h20.42l10.21,17.68L483.41,399.5z M494.48,381.32l-10.2-17.68l10.2-17.69
			h20.42l2.72,4.71l7.49,12.98l-7.46,12.91l-2.75,4.77H494.48z M546.39,399.5h-20.41l-6.81-11.79l-3.4-5.89l10.21-17.68h20.41
			l10.21,17.68L546.39,399.5z M582.99,354.8l5.1,8.84l-5.1,8.84l-5.11,8.84h-20.41l-10.21-17.68l10.21-17.69h20.41L582.99,354.8z
			 M582.99,318.43l5.1,8.84l-5.1,8.84l-5.11,8.84h-20.41l-10.21-17.68l10.21-17.68h20.41L582.99,318.43z M582.99,282.07l5.1,8.84
			l-5.1,8.84l-5.11,8.84h-20.41l-10.21-17.68l10.21-17.68h20.41L582.99,282.07z M582.99,245.7l5.1,8.85l-5.1,8.84l-5.11,8.84h-20.41
			l-10.21-17.68l10.21-17.69h20.41L582.99,245.7z M582.99,209.34l5.1,8.84l-5.1,8.84l-5.11,8.84h-20.41l-10.21-17.68l10.21-17.68
			h20.41L582.99,209.34z M582.99,172.98l5.1,8.84l-5.1,8.84l-5.11,8.84h-20.41l-10.21-17.68l10.21-17.68h20.41L582.99,172.98z
			 M582.99,136.61l5.1,8.84l-5.1,8.85l-5.11,8.84h-20.41l-10.21-17.69l10.21-17.68h20.41L582.99,136.61z M582.99,100.25l5.1,8.84
			l-5.1,8.84l-5.11,8.84h-20.41l-10.21-17.68l10.21-17.68h20.41L582.99,100.25z M582.99,63.89l5.1,8.84l-5.1,8.84l-5.11,8.84h-20.41
			l-10.21-17.68l10.21-17.68h20.41L582.99,63.89z M582.99,27.52l5.1,8.84l-5.1,8.84l-5.11,8.85h-20.41l-10.21-17.69l10.21-17.68
			h20.41L582.99,27.52z"/>
	</g>
</g>
</svg>
